<?xml version="1.0" encoding="utf-8"?>
<svg viewBox="44.094 275.563 108.806 101.602" width="108.806" height="101.602" xmlns="http://www.w3.org/2000/svg" xmlns:bx="https://boxy-svg.com">
  <defs>
    <radialGradient gradientUnits="userSpaceOnUse" cx="86.348" cy="307.675" r="59.289" id="gradient-0" gradientTransform="matrix(1.116621, 0.054485, -0.024106, 1.779584, -8.511602, -14.227244)">
      <stop offset="0" style="stop-color: rgb(228, 242, 103);"/>
      <stop offset="1" style="stop-color: rgb(96, 243, 192);"/>
    </radialGradient>
  </defs>
  <rect x="30.022" y="489.2" width="111.199" height="61.952" style="fill-rule: nonzero; fill: url(#gradient-0);" transform="matrix(0.999998, 0.001818, -0.001818, 0.999998, 14.714867, -213.91135)"/>
  <rect x="98.153" y="822.653" width="110.235" height="37.163" style="paint-order: fill; fill: rgb(93, 236, 255);" rx="0.319" ry="0.319" transform="matrix(0.999692, -0.024837, -0.005298, 1.00044, -50.041364, -485.381874)"/>
  <path d="M 132.979 -4.093 Q 139.383 -7.585 146.048 -4.093 L 164.455 5.55 Q 171.12 9.042 158.052 9.042 L 121.958 9.042 Q 108.89 9.042 115.293 5.55 Z" style="fill: rgb(231, 226, 161);" transform="matrix(0.99731, 0.073303, 0.285599, 1.023689, -83.18287, 319.032414)" bx:shape="triangle 108.89 -7.585 62.23 16.627 0.49 0.21 1@818eee64"/>
  <rect x="54.639" y="304.7" width="1.2" height="18.6" style="fill: rgb(121, 89, 29);"/>
  <rect x="45.873" y="297.754" width="18.705" height="8.393" style="fill: rgb(191, 203, 131);"/>
  <path d="M 7.893 8.387 L 8.771 9.939 L 6.979 9.939 L 7.893 8.387 Z" style="fill: none;" transform="matrix(0.866025, -0.5, 0.5, 0.866025, 34.20448, 296.601811)" bx:shape="triangle 6.979 8.387 1.792 1.552 0.51 0 1@b449f789"/>
  <path style="fill: rgb(152, 133, 90);" d="M 80.724 338.511 C 80.724 338.078 80.546 337.026 80.867 336.659 C 82.086 335.266 83.969 336.826 84.472 337.688 C 84.643 337.981 84.333 338.456 84.231 338.717 C 83.758 339.936 81.657 340.505 80.339 339.828 C 79.982 339.646 79.435 338.578 79.665 338.182 C 79.806 337.941 80.662 337.934 80.963 337.934"/>
  <path style="fill: rgb(112, 96, 62);" d="M 67.191 335.047 C 67.357 334.492 68.339 334.207 69.1 334.513 C 69.916 334.842 70.093 335.674 69.577 336.194 C 69.095 336.68 67.502 336.441 67.112 336.114 C 66.91 335.944 66.851 335.737 66.714 335.554 C 66.516 335.287 66.752 334.591 67.231 334.913"/>
  <path style="fill: rgb(120, 109, 86);" d="M 59.746 331.854 C 59.613 331.987 58.567 333.139 58.651 333.223 C 58.813 333.385 60.406 333.467 60.676 333.332 C 60.777 333.282 60.976 333.007 61.005 332.949 C 61.015 332.929 61.326 332.014 61.169 331.909 C 60.873 331.712 59.417 331.451 59.417 331.909"/>
  <path style="fill: rgb(120, 109, 86);" d="M 82.535 338.306 C 82.535 340.076 83.795 340.386 85.108 339.73 C 85.423 339.572 85.815 339.744 85.929 339.401 C 86.151 338.737 84.276 338.69 83.904 338.69 C 83.473 338.69 82.868 338.635 82.535 338.635"/>
  <path style="fill: rgb(86, 76, 55);" d="M 48.816 329.902 C 49.758 329.196 51.127 329.705 51.478 330.759 C 51.538 330.938 51.85 331.296 51.697 331.526 C 51.558 331.734 50.534 331.744 50.712 331.799 C 50.97 331.878 48.333 332.246 48.198 331.719 C 48.02 331.026 48.118 330.102 48.358 330.102"/>
  <path style="fill: rgb(144, 119, 63);" d="M 55.564 323.25 C 56.113 323.524 56.475 323.966 56.878 324.235 C 57.245 324.48 58.525 324.294 57.918 323.688 C 57.66 323.43 56.27 323.304 55.892 323.304"/>
  <path style="fill: rgb(110, 94, 59);" d="M 52.792 322.668 C 52.97 323.38 53.504 323.708 54.052 324.037 C 54.096 324.064 54.551 324.345 54.654 324.201 C 55.401 323.155 54.803 322.559 53.614 322.559 C 53.121 322.559 52.709 322.723 52.245 322.723"/>
  <path style="fill: rgb(97, 82, 49);" d="M 51.735 336.062 C 51.402 336.395 51.588 336.183 51.42 336.52 C 51.37 336.619 51.714 336.813 51.831 336.794 C 52.362 336.705 52.953 336.785 53.169 336.352 C 53.502 335.686 52.717 335.036 52.269 335.261 C 52.143 335.324 51.768 335.755 51.768 335.888"/>
  <path style="fill: rgb(90, 82, 64);" d="M 54.807 323.192 C 55.271 322.704 56.064 322.766 56.237 323.494 C 56.267 323.618 56.421 323.865 56.345 324.023 C 56.277 324.167 55.95 324.19 55.86 324.212 C 55.583 324.28 55.144 324.372 54.915 324.212 C 54.881 324.188 54.581 323.04 54.699 323.04"/>
  <path style="fill: rgb(138, 120, 79);" d="M 44.299 326.218 C 44.217 326.327 43.567 327.273 43.619 327.342 C 43.72 327.475 44.709 327.542 44.877 327.431 C 44.939 327.39 45.063 327.164 45.081 327.117 C 45.087 327.1 45.28 326.349 45.183 326.263 C 44.999 326.101 43.816 326.465 43.816 326.841"/>
  <path style="fill: rgb(110, 102, 85);" d="M 69.719 335.954 C 69.637 336.063 68.987 337.009 69.039 337.078 C 69.14 337.211 70.129 337.278 70.297 337.167 C 70.359 337.126 70.483 336.9 70.501 336.853 C 70.507 336.836 70.7 336.085 70.603 335.999 C 70.419 335.837 69.515 335.623 69.515 335.999"/>
  <text style="white-space: pre; fill: rgb(51, 51, 51); font-family: Arial, sans-serif; font-size: 3.2px;" x="48.981" y="302.851" transform="matrix(0.999991, 0.004349, -0.004349, 0.999991, 1.924116, 0.245348)"> No poop 💩</text>
  <path d="M 150.268 -4.615 Q 157.757 -8.802 165.552 -4.615 L 185.883 6.305 Q 193.678 10.492 178.394 10.492 L 138.529 10.492 Q 123.245 10.492 130.734 6.305 Z" style="fill: rgb(76, 45, 45);" transform="matrix(0.005946, -0.999982, 1.011648, -1.955946, 145.65433, 509.910255)" bx:shape="triangle 123.245 -8.802 70.433 19.294 0.49 0.217 1@7bec190b"/>
  <path style="fill: rgb(239, 231, 154);" d="M 97.369 384.711 C 89.192 384.711 82.981 385.787 74.881 384.572 C 70.573 383.926 66.237 383.001 61.976 382.054 C 57.589 381.079 53.311 379.848 48.914 378.906 C 44.96 378.059 39.171 377.409 41.831 372.976 C 42.475 371.903 42.275 371.901 43.315 371.101 C 44.828 369.937 48.592 369.118 50.173 368.047 C 52.795 366.271 55.874 364.918 58.986 364.27 C 65.024 363.012 71.294 363.936 77.399 363.011 C 94.202 360.465 111.121 356.78 128.233 357.817 C 136.815 358.338 147.09 360.566 153.886 366.316 C 154.714 367.017 161.296 373.034 158.922 374.814 C 154.925 377.812 149.26 378.127 144.6 379.536 C 137.593 381.654 130.749 384.079 123.354 384.572 C 117.204 384.982 114.185 383.433 108.074 384.248 C 103.128 384.907 106.495 385.058 101.554 385.058"/>
  <path style="fill: rgb(100, 229, 89); stroke: rgb(113, 204, 28);" d="M 155.456 304.593 C 156.045 303.796 122.11 290.788 114.622 301.134"/>
  <path style="fill: rgb(100, 229, 89); stroke: rgb(113, 204, 28);" d="M 156.455 303.944 C 157.299 303.181 139.06 280.336 118.855 285.106"/>
  <path style="fill: rgb(100, 229, 89); stroke: rgb(113, 204, 28);" d="M 155.183 305.294 C 147.191 300.155 116.82 313.599 119.263 319.101"/>
  <path style="fill: rgb(100, 229, 89); stroke: rgb(113, 204, 28);" d="M 155.115 306.256 C 136.133 312.162 134.202 327.132 134.214 327.128"/>
  <path style="fill: rgb(100, 229, 89); stroke: rgb(113, 204, 28);" d="M 156.222 304.502 C 156.387 303.443 153.576 280.273 150.029 272.199 C 148.918 269.672 147.735 268.623 146.549 270.197"/>
  <path style="fill: rgb(100, 229, 89); stroke: rgb(113, 204, 28);" d="M 157 305.056 C 149.378 314.114 148.603 337.071 148.608 337.066"/>
  <path d="M 87.581 65.248 Q 89.422 60.888 91.12 65.248 L 91.12 65.248 Q 92.819 69.608 89.28 69.608 L 89.28 69.608 Q 85.741 69.608 87.581 65.248 Z" style="fill: rgb(174, 179, 30);" transform="matrix(-0.955265, -0.295751, 0.295751, -0.955265, 220.364948, 397.141424)" bx:shape="triangle 85.741 60.888 7.078 8.72 0.52 0.5 1@7b6eb04a"/>
  <path d="M 75.585 42.436 Q 77.173 39.601 78.639 42.436 L 78.639 42.436 Q 80.105 45.271 77.051 45.271 L 77.051 45.271 Q 73.997 45.271 75.585 42.436 Z" style="fill: rgb(251, 244, 27);" transform="matrix(-0.955265, -0.295751, 0.295751, -0.955265, 215.582797, 367.476141)" bx:shape="triangle 73.997 39.601 6.108 5.67 0.52 0.5 1@9008e75f"/>
</svg>